<?xml version="1.0" encoding="utf-8"?>
<!-- Generator: Adobe Illustrator 25.0.1, SVG Export Plug-In . SVG Version: 6.00 Build 0)  -->
<svg version="1.1" id="Ebene_1" xmlns="http://www.w3.org/2000/svg" xmlns:xlink="http://www.w3.org/1999/xlink" x="0px" y="0px"
	 viewBox="0 0 512 512" style="enable-background:new 0 0 512 512;" xml:space="preserve">
<style type="text/css">
	.st0{fill:#FFFFFF;}
	.st1{fill:#1D1D1B;}
</style>
<rect class="st0" width="512" height="512"/>
<path class="st1" d="M82.81,158.55c0-18.96-0.76-34.14-3.04-51.96h77.38c-1.9,15.55-3.04,33.74-3.04,51.96v7.96h13.66
	c16.69,0,25.41-0.38,37.17-1.9v62.96c-11.38-1.52-21.24-2.28-34.9-2.28h-15.93v97.09c0,10.63,1.89,15.94,6.83,19.35
	c4.17,2.65,10.24,4.17,17.44,4.17c9.86,0,17.07-1.9,26.55-6.83l5.68,57.64c-17.06,5.31-31.86,7.59-52.33,7.59
	c-25.79,0-43.62-4.17-55.76-13.27c-14.41-11-19.71-23.9-19.71-49.69V225.29H68.4c-12.14,0-21.99,0.76-33,2.28v-63.34
	c11,1.52,20.48,2.28,33.76,2.28h13.66v-7.96H82.81z"/>
<path class="st1" d="M321.33,320.49c3.79,19.72,16.69,28.45,42.09,28.45c22.76,0,35.65-6.44,35.65-18.2
	c0-5.68-3.03-10.62-8.34-13.66c-5.31-3.03-10.24-4.55-31.1-8.72c-28.82-5.68-43.61-9.48-56.13-13.65
	c-18.2-6.83-30.72-15.55-37.93-26.93c-6.07-10.24-9.47-23.14-9.47-36.03c0-45.52,38.3-73.19,101.64-73.19
	c36.02,0,62.95,7.96,80.78,24.27c12.51,10.99,18.58,21.99,24.65,43.23l-73.19,7.97c-1.89-15.55-11.38-22.38-31.86-22.38
	c-19.72,0-31.86,6.44-31.86,16.31c0,10.23,7.97,14.03,45.52,22.37c37.17,7.97,48.92,11.38,62.2,18.2
	c24.65,12.14,36.41,30.73,36.41,58.03c0,20.1-6.83,38.31-19.35,50.45c-18.2,18.19-49.3,27.68-89.88,27.68
	c-47.79,0-81.54-12.89-99.75-37.92c-7.59-10.63-11.39-19.72-15.18-37.93L321.33,320.49z"/>
</svg>
