<svg xmlns="http://www.w3.org/2000/svg" width="65.71mm" height="10.58mm" viewBox="0 0 186.26 30"><defs><style>.cls-1{fill:#1d1d1b;}</style></defs><title>travelshop-logo</title><path class="cls-1" d="M126.2,232.73a29.71,29.71,0,0,0-.23-4h6a33.82,33.82,0,0,0-.24,4v.63h1.07a20,20,0,0,0,2.9-.15v4.91A20.55,20.55,0,0,0,133,238h-1.25v7.58c0,.83.15,1.24.54,1.51a2.53,2.53,0,0,0,1.36.32,4,4,0,0,0,2.07-.53l.44,4.5a12.53,12.53,0,0,1-4.08.6,7.16,7.16,0,0,1-4.36-1c-1.12-.86-1.54-1.87-1.54-3.88V238h-1.12a19.27,19.27,0,0,0-2.58.17v-4.94a17.67,17.67,0,0,0,2.64.18h1.06Z" transform="translate(-122.5 -226.78)"/><path class="cls-1" d="M151.38,238.69a9.43,9.43,0,0,0-3-.57,4.19,4.19,0,0,0-4.41,4.24V247a32,32,0,0,0,.24,4.44h-6.13a34.57,34.57,0,0,0,.23-4.47v-9.12a30.36,30.36,0,0,0-.23-4.47H144v2.34a6.7,6.7,0,0,1,5.92-2.7,11.78,11.78,0,0,1,2.93.36Z" transform="translate(-122.5 -226.78)"/><path class="cls-1" d="M166.46,239c0-1.42-.86-2.07-2.81-2.07s-2.9.62-3.35,2.07l-5.65-.92a6.38,6.38,0,0,1,2.48-3.58,11.44,11.44,0,0,1,6.67-1.69,12.91,12.91,0,0,1,5.48,1c1.89,1,2.72,2.66,2.72,5.33v8a33.82,33.82,0,0,0,.21,4.2h-5.75v-1.36a8.59,8.59,0,0,1-5.74,1.78,7.3,7.3,0,0,1-5.13-1.63,5.35,5.35,0,0,1-1.62-4,5,5,0,0,1,2.16-4.32,12.29,12.29,0,0,1,6.16-1.93c1.15-.12,2-.15,4.17-.21Zm0,4.47a17.35,17.35,0,0,0-5.12.6,2.18,2.18,0,0,0-1.72,1.95c0,1.07.89,1.69,2.43,1.69a5.45,5.45,0,0,0,3.35-1.13,3,3,0,0,0,1.06-2.28Z" transform="translate(-122.5 -226.78)"/><path class="cls-1" d="M180.57,233.36a12.56,12.56,0,0,0,.56,2.54l2.76,9.21c0,.06.05.18.11.33.09.3.09.33.24.83.09-.27.12-.42.15-.53a1.22,1.22,0,0,0,.09-.3c.06-.15.09-.27.12-.36l2.75-9.18a13.12,13.12,0,0,0,.56-2.54h6.58c-.59,1.33-.83,1.89-1.22,2.87l-5,12.7a12.46,12.46,0,0,0-.8,2.49H181a11.83,11.83,0,0,0-.8-2.49l-5-12.7L174,233.36Z" transform="translate(-122.5 -226.78)"/><path class="cls-1" d="M200.92,244.05c.3,2.4,1.69,3.67,4,3.67a4.34,4.34,0,0,0,3-1.1,2.86,2.86,0,0,0,.89-1.51l5.15,1.45a8.55,8.55,0,0,1-1.95,3.06,9.66,9.66,0,0,1-7,2.51,9.29,9.29,0,0,1-6.87-2.51,10.09,10.09,0,0,1-2.7-7.23c0-5.86,3.76-9.74,9.42-9.74,4.62,0,7.85,2.51,8.89,6.93a22.33,22.33,0,0,1,.44,3.88,5.39,5.39,0,0,0,0,.59Zm7.7-4.09a3.45,3.45,0,0,0-3.73-2.9A3.58,3.58,0,0,0,201,240Z" transform="translate(-122.5 -226.78)"/><path class="cls-1" d="M222.82,226.78a29.86,29.86,0,0,0-.24,4.47V247a35,35,0,0,0,.24,4.47h-6.19a31.15,31.15,0,0,0,.23-4.47v-15.7a29.66,29.66,0,0,0-.23-4.47Z" transform="translate(-122.5 -226.78)"/><path class="cls-1" d="M231.11,245.38c.3,1.54,1.3,2.22,3.29,2.22,1.78,0,2.78-.5,2.78-1.42a1.21,1.21,0,0,0-.65-1.07,8,8,0,0,0-2.43-.68,35.57,35.57,0,0,1-4.38-1.06,5.71,5.71,0,0,1-3-2.11,5.53,5.53,0,0,1-.74-2.81c0-3.55,3-5.72,7.94-5.72q4.22,0,6.3,1.9a6.19,6.19,0,0,1,1.93,3.38l-5.72.62c-.15-1.22-.89-1.75-2.49-1.75s-2.48.5-2.48,1.27.62,1.1,3.55,1.75a18.31,18.31,0,0,1,4.86,1.42,4.65,4.65,0,0,1,2.84,4.53,5.41,5.41,0,0,1-1.51,3.94c-1.42,1.42-3.85,2.16-7,2.16-3.73,0-6.37-1-7.79-3a6.83,6.83,0,0,1-1.18-3Z" transform="translate(-122.5 -226.78)"/><path class="cls-1" d="M245.31,251.42a34.47,34.47,0,0,0,.23-4.47v-15.7a30.44,30.44,0,0,0-.23-4.47h6.13a29.61,29.61,0,0,0-.24,4.47v3.14c0,.24,0,.71,0,1a8.19,8.19,0,0,1,6.16-2.46,6.42,6.42,0,0,1,4.71,1.66c1.18,1.19,1.69,2.64,1.69,5V247a39.8,39.8,0,0,0,.23,4.44H257.8A33.19,33.19,0,0,0,258,247v-6.07a3.49,3.49,0,0,0-.47-2.22,2.27,2.27,0,0,0-1.9-.8c-1.69,0-3.29,1.12-4.47,3.08v6a35.59,35.59,0,0,0,.24,4.47Z" transform="translate(-122.5 -226.78)"/><path class="cls-1" d="M266.28,242.36c0-5.92,3.79-9.68,9.77-9.68s9.78,3.76,9.78,9.62-3.91,9.8-9.8,9.8S266.28,248.31,266.28,242.36Zm5.66,0c0,3.29,1.54,5.27,4.11,5.27s4.06-1.92,4.06-5.21-1.51-5.27-4-5.27S271.94,239.07,271.94,242.33Z" transform="translate(-122.5 -226.78)"/><path class="cls-1" d="M288.24,256.78a40,40,0,0,0,.23-4.32V238a37.79,37.79,0,0,0-.23-4.65h5.83v1c0,.18,0,.42,0,.57a8.79,8.79,0,0,1,6.07-2.11,8.65,8.65,0,0,1,6.28,2.28c1.57,1.57,2.37,3.91,2.37,6.9a9.83,9.83,0,0,1-2.58,7.17,8.5,8.5,0,0,1-6.1,2.34,10.79,10.79,0,0,1-4-.77,6.89,6.89,0,0,1-2-1.36c0,.26,0,.65,0,1.06v2.05a30.44,30.44,0,0,0,.24,4.29Zm13.44-10.87a5.29,5.29,0,0,0,1.3-3.85c0-3-1.6-4.76-4.38-4.76a4.88,4.88,0,0,0,.18,9.74A4.11,4.11,0,0,0,301.68,245.91Z" transform="translate(-122.5 -226.78)"/></svg>