<svg width="0" height="0" class="hidden">
    <symbol id="share-telegram" aria-hidden="true" xmlns="http://www.w3.org/2000/svg" role="presentation" focusable="false" viewBox="0 0 512 512">

        <rect y="0" fill="#37AEE2" width="512" height="512"/>
        <path fill="#C8DAEA" d="M199,404c-11,0-10-4-13-14l-32-105l245-144"/>
        <path fill="#A9C9DD" d="M199,404c7,0,11-4,16-8l45-43l-56-34"/>
        <path fill="#F6FBFE" d="M204,319l135,99c14,9,26,4,30-14l55-258c5-22-9-32-24-25L79,245c-21,8-21,21-4,26l83,26l190-121c9-5,17-3,11,4"
        />
  </symbol>
    <symbol xmlns="http://www.w3.org/2000/svg" aria-hidden="true" role="presentation" focusable="false" viewBox="0 0 32 32" id="share-twitter">
        <path fill="#1DA1F2" d="M0 0H32V32H0z"></path>
        <path d="M18.664 7.985a4.5 4.5 0 0 0-2.289 4.89c-3.5-.188-6.875-1.813-9.063-4.625a4.25 4.25 0 0 0 1.375 5.875c-.687 0-1.374-.125-2-.438.063 2.063 1.5 3.876 3.5 4.313-.624.188-1.312.188-2 .063.626 1.812 2.313 3.062 4.188 3.125-1.813 1.5-4.25 2.187-6.563 1.812a12.438 12.438 0 0 0 19.313-11.188c.875-.624 1.625-1.374 2.188-2.312-.75.375-1.625.625-2.5.75.937-.563 1.625-1.438 2-2.5-.875.5-1.813.875-2.813 1.063a4.5 4.5 0 0 0-5.336-.828z" fill="#FFF"></path>
    </symbol>
    <symbol xmlns="http://www.w3.org/2000/svg" aria-hidden="true" role="presentation" focusable="false" viewBox="0 0 32 32" id="share-whatsapp">
        <path d="m32 0v32h-32v-32z" fill="#25d366"></path>
        <path d="m4 28 1.695-6.163a11.824 11.824 0 0 1 -1.595-5.946c.003-6.556 5.364-11.891 11.95-11.891a11.903 11.903 0 0 1 8.453 3.488 11.794 11.794 0 0 1 3.497 8.414c-.003 6.557-5.363 11.892-11.95 11.892-2 0-3.97-.5-5.715-1.448zm6.628-3.807c1.684.995 3.292 1.591 5.418 1.592 5.474 0 9.933-4.434 9.936-9.885.002-5.462-4.436-9.89-9.928-9.892-5.478 0-9.934 4.434-9.936 9.884 0 2.225.654 3.891 1.754 5.634l-1.002 3.648 3.76-.98h-.002zm11.364-5.518c-.074-.123-.272-.196-.57-.344-.296-.148-1.754-.863-2.027-.96-.271-.1-.469-.149-.667.147-.198.295-.767.96-.94 1.157s-.346.222-.643.074c-.296-.148-1.253-.46-2.386-1.466-.881-.783-1.477-1.75-1.65-2.045s-.018-.455.13-.602c.134-.133.296-.345.445-.518.15-.17.2-.294.3-.492.098-.197.05-.37-.025-.518-.075-.147-.668-1.6-.915-2.19-.241-.577-.486-.499-.668-.508l-.569-.01a1.09 1.09 0 0 0 -.79.37c-.272.296-1.039 1.01-1.039 2.463s1.064 2.857 1.211 3.054c.15.197 2.092 3.18 5.068 4.458.708.304 1.26.486 1.69.622.712.224 1.359.193 1.87.117.57-.084 1.755-.714 2.002-1.404.248-.69.248-1.28.173-1.405z" fill="#FFF"></path>
    </symbol>
    <symbol xmlns="http://www.w3.org/2000/svg" aria-hidden="true" role="presentation" focusable="false" viewBox="0 0 32 32" id="share-facebook">
        <path fill="#1877F2" d="M32 0v32H0V0z"></path>
        <path d="M22.938 16H18.5v-3.001c0-1.266.62-2.499 2.607-2.499h2.018V6.562s-1.831-.312-3.582-.312c-3.654 0-6.043 2.215-6.043 6.225V16H9.436v4.625H13.5V32h5V20.625h3.727l.71-4.625z" fill="#FFF"></path>
    </symbol>

</svg>